<?xml version="1.0" encoding="UTF-8"?>
<svg width="10px" height="7px" viewBox="0 0 10 7" version="1.1" xmlns="http://www.w3.org/2000/svg" xmlns:xlink="http://www.w3.org/1999/xlink">
    <!-- Generator: Sketch 49.2 (51160) - http://www.bohemiancoding.com/sketch -->
    <title>Fill 11 Copy 3</title>
    <desc>Created with Sketch.</desc>
    <defs></defs>
    <g id="Page-1" stroke="none" stroke-width="1" fill="none" fill-rule="evenodd">
        <g id="BTY钱包界面规范" transform="translate(-757.000000, -7344.000000)" fill="#FFA60C">
            <path d="M766.624017,7348.16055 L764.811093,7350.0743 C764.795997,7350.09023 764.779683,7350.10529 764.762616,7350.11903 L764.497873,7350.33226 C764.475228,7350.35049 764.451685,7350.36635 764.427866,7350.37943 C764.173917,7350.51861 763.876141,7350.56847 763.589318,7350.51984 C763.295482,7350.47 763.028291,7350.32431 762.816676,7350.09852 C762.500486,7349.7612 762.375061,7349.2998 762.472306,7348.86231 L758.54663,7348.86231 C757.693811,7348.86231 757,7348.14967 757,7347.27374 C757,7346.39779 757.693811,7345.68516 758.54663,7345.68516 L762.467641,7345.68516 C762.42748,7345.49809 762.427451,7345.30263 762.468423,7345.11168 C762.573014,7344.62417 762.943231,7344.21219 763.411562,7344.06207 C763.821057,7343.93082 764.252008,7344.00987 764.597885,7344.27876 L766.623727,7346.3866 C766.862927,7346.61505 767,7346.93803 767,7347.2737 C767,7347.60922 766.863029,7347.93208 766.624017,7348.16055 Z" id="Fill-11-Copy-3"></path>
        </g>
    </g>
</svg>