<?xml version="1.0" encoding="UTF-8"?>
<svg width="14px" height="14px" viewBox="0 0 14 14" version="1.1" xmlns="http://www.w3.org/2000/svg" xmlns:xlink="http://www.w3.org/1999/xlink">
    <!-- Generator: Sketch 49.2 (51160) - http://www.bohemiancoding.com/sketch -->
    <title>Fill 1</title>
    <desc>Created with Sketch.</desc>
    <defs></defs>
    <g id="Page-1" stroke="none" stroke-width="1" fill="none" fill-rule="evenodd">
        <g id="钱包首页" transform="translate(-158.000000, -212.000000)">
            <g id="Fill-1" transform="translate(158.000000, 212.000000)">
                <path d="M12.1386767,11 L11.1070434,11 L11.0959144,4.57402599 C11.0936157,3.67485993 10.3625777,2.94845303 9.46552966,2.95293737 L3,2.98424366 L3,1.86094472 C3,0.831844923 3.83419859,0 4.86131857,0 L12.1386767,0 C13.1680393,0 13.9999953,0.834031039 13.9999953,1.86094472 L13.9999953,9.13684114 C14.0022939,10.168127 13.1680393,11 12.1386767,11" fill="#B2BCC6"></path>
                <path d="M13.2236315,9.18171633 C13.2236315,9.84402236 12.6848162,10.3814798 12.0209022,10.3814798 L11.1873441,10.3814798 L11.1873441,4.78238969 C11.1873441,3.71369084 10.3154184,2.84194596 9.24210982,2.84194596 L3.59551346,2.84194596 L3.59551346,1.97641706 C3.59551346,1.31411103 4.13430222,0.776600709 4.79818967,0.776600709 L12.0209022,0.776600709 C12.6848162,0.776600709 13.2236315,1.31411103 13.2236315,1.97641706 L13.2236315,9.18171633 Z M10.4087784,12.0596092 C10.4087784,12.700728 9.88489118,13.2234522 9.24210982,13.2234522 L1.94730243,13.2234522 C1.30449456,13.2234522 0.780633853,12.700728 0.780633853,12.0596092 L0.780633853,4.78238969 C0.780633853,4.14116509 1.30449456,3.61854667 1.94730243,3.61854667 L9.24210982,3.61854667 C9.88489118,3.61854667 10.4087784,4.14116509 10.4087784,4.78238969 L10.4087784,12.0596092 Z M12.0209022,0 L4.79818967,0 C3.70579016,0 2.81692128,0.886636777 2.81692128,1.97641706 L2.81692128,2.84194596 L1.94512818,2.84194596 C0.873967339,2.84194596 0,3.71162766 0,4.78238969 L0,12.0596092 C0,13.1281493 0.871793093,14 1.94512818,14 L9.24001512,14 C10.311176,14 11.1851698,13.1302125 11.1851698,12.0596092 L11.1851698,11.1560438 L12.0188341,11.1560438 C13.1112336,11.1560438 13.9999964,10.2692747 13.9999964,9.17954735 L13.9999964,1.97641706 C14.0020646,0.886636777 13.1133283,0 12.0209022,0 Z" id="Fill-3" fill="#575B72"></path>
                <path d="M7.64146881,8.14340343 L5.85660701,8.14340343 L5.85660701,6.35658439 C5.85660701,6.15973227 5.6968268,6 5.49997564,6 C5.30322191,6 5.14336863,6.15973227 5.14336863,6.35658439 L5.14336863,8.14340343 L3.35660701,8.14340343 C3.15982892,8.14340343 3,8.3031357 3,8.49998782 C3,8.69674251 3.15982892,8.85659657 3.35660701,8.85659657 L5.14336863,8.85659657 L5.14336863,10.6433913 C5.14336863,10.8401459 5.30322191,11 5.49997564,11 C5.6968268,11 5.85660701,10.8401459 5.85660701,10.6433913 L5.85660701,8.85659657 L7.64336863,8.85659657 C7.8402198,8.85659657 8,8.69674251 8,8.49998782 C8,8.3031357 7.8402198,8.14340343 7.64146881,8.14340343" id="Fill-7" fill="#575B72"></path>
            </g>
        </g>
    </g>
</svg>