<?xml version="1.0" encoding="UTF-8"?>
<svg width="14px" height="13px" viewBox="0 0 14 13" version="1.1" xmlns="http://www.w3.org/2000/svg" xmlns:xlink="http://www.w3.org/1999/xlink">
    <!-- Generator: Sketch 49.2 (51160) - http://www.bohemiancoding.com/sketch -->
    <title>Page 1 Copy 2</title>
    <desc>Created with Sketch.</desc>
    <defs></defs>
    <g id="Page-1" stroke="none" stroke-width="1" fill="none" fill-rule="evenodd">
        <g id="BTY钱包界面规范" transform="translate(-784.000000, -7269.000000)" fill="#575B72">
            <g id="Page-1-Copy-2" transform="translate(784.000000, 7269.000000)">
                <path d="M9.92412177,10.0506044 C9.74699743,10.0506044 9.57668617,10.1034062 9.43121427,10.2033481 C8.73897683,10.6263884 7.94146782,10.8499672 7.12454469,10.8499672 C5.94797919,10.8499672 4.84183129,10.3955993 4.00987837,9.57050814 C3.17790969,8.74543262 2.71972998,7.64841829 2.71972998,6.48160106 C2.71972998,6.44317271 2.72028196,6.40447848 2.72138593,6.36512735 L3.04136418,6.36512735 C3.27250427,6.36512735 3.48249542,6.23886278 3.58937563,6.03558512 C3.6962243,5.8323231 3.68042174,5.58928766 3.5480871,5.40133754 L2.33882827,3.68388606 C2.22330554,3.51981876 2.03389557,3.42187887 1.83212112,3.42186323 L1.83210535,3.42186323 C1.63034668,3.42186323 1.44090517,3.51981876 1.32538244,3.68388606 L0.116139378,5.40133754 C-0.0162268038,5.58927202 -0.0320293672,5.83230746 0.0748350733,6.03558512 C0.181699514,6.23884714 0.391674892,6.36512735 0.622846522,6.36512735 L0.989522768,6.36512735 C0.988765759,6.40419695 0.988387254,6.44309451 0.988387254,6.48160106 C0.988387254,8.10702471 1.62665626,9.63519664 2.78563707,10.7845749 C3.94460212,11.9339531 5.4855413,12.5669338 7.12454469,12.5669338 C8.26267621,12.5669338 9.37409163,12.2550965 10.3389154,11.665158 C10.617889,11.5141973 10.7909602,11.2254295 10.7909602,10.9102138 C10.7909602,10.4362329 10.4020941,10.0506044 9.92412177,10.0506044" id="Fill-1"></path>
                <path d="M4.06501468,2.5175661 C4.24242896,2.5175661 4.41298803,2.46473799 4.55868509,2.3647464 C5.25199395,1.9414956 6.05073732,1.71780549 6.86892486,1.71780549 C8.04731141,1.71780549 9.15517137,2.17241516 9.98842775,2.99791695 C10.8216841,3.8234031 11.2805572,4.92094776 11.2805572,6.08836134 C11.2805572,6.12679316 11.2800044,6.1655223 11.2788987,6.20489301 L10.958441,6.20489301 C10.7269273,6.20489301 10.5166112,6.33120477 10.4095813,6.5345836 C10.3025515,6.73796243 10.3183785,6.98111883 10.450918,7.16916248 L11.6620485,8.88746872 C11.77775,9.05160202 11.9674689,9.1496063 12.1695557,9.1496063 C12.1695715,9.1496063 12.1695399,9.1496063 12.1695557,9.1496063 C12.3716424,9.1496063 12.5613613,9.05160202 12.6770787,8.88746872 L13.8881776,7.16916248 C14.0207486,6.98111883 14.0365914,6.73797808 13.9295616,6.5345836 C13.822516,6.33122042 13.6122156,6.20489301 13.3807019,6.20489301 L13.0134582,6.20489301 C13.0142006,6.16578832 13.0145954,6.12688705 13.0145954,6.08836134 C13.0145954,4.46211309 12.3753227,2.93319626 11.2145639,1.783246 C10.0537892,0.633295736 8.51046505,0 6.86892486,0 C5.72903177,0 4.61589614,0.311976899 3.64959484,0.902224612 C3.37017366,1.05326043 3.19685039,1.34215632 3.19685039,1.65754452 C3.19685039,2.1317613 3.58630255,2.5175661 4.06501468,2.5175661" id="Fill-4"></path>
            </g>
        </g>
    </g>
</svg>