<?xml version="1.0" encoding="UTF-8"?>
<svg width="16px" height="20px" viewBox="0 0 16 20" version="1.1" xmlns="http://www.w3.org/2000/svg" xmlns:xlink="http://www.w3.org/1999/xlink">
    <!-- Generator: Sketch 49.2 (51160) - http://www.bohemiancoding.com/sketch -->
    <title>Page 1 Copy 2</title>
    <desc>Created with Sketch.</desc>
    <defs>
        <polygon id="path-1" points="0 0 16 0 16 20 0 20"></polygon>
    </defs>
    <g id="Page-1" stroke="none" stroke-width="1" fill="none" fill-rule="evenodd">
        <g id="BTY钱包界面规范" transform="translate(-68.000000, -6887.000000)">
            <g id="Page-1-Copy-2" transform="translate(68.000000, 6887.000000)">
                <mask id="mask-2" fill="white">
                    <use xlink:href="#path-1"></use>
                </mask>
                <g id="Clip-2"></g>
                <path d="M12.041982,15.4083282 C11.8553115,15.680596 11.6124132,15.8983514 11.3324831,16.0615945 C11.0524019,16.2069118 10.679061,16.3157895 10.268386,16.3701549 C10.0442303,16.4064474 9.6521468,16.4246672 9.12931841,16.4246672 L9.09213547,16.4246672 L6.90771338,16.4246672 L6.90771338,16.4428869 L5.50760947,16.4428869 L5.50760947,12.3956037 L6.90771338,12.3956037 L9.09213547,12.3956037 C9.82022578,12.4138235 10.3803883,12.4681889 10.7910632,12.5951394 C11.2765576,12.7222369 11.6497473,12.9401393 11.9112371,13.2667725 C12.1911672,13.5934056 12.3220632,13.9745511 12.3220632,14.4102089 C12.3220632,14.7912075 12.2285013,15.1179876 12.041982,15.4083282 Z M5.50760947,7.45907902 L6.62778329,7.45907902 L6.62778329,7.47729877 L9.35347409,7.49537159 C9.82022578,7.51359135 10.1935667,7.56810368 10.4363138,7.62246907 C10.84714,7.73134679 11.1831468,7.93102942 11.3885598,8.23944283 C11.6124132,8.52993035 11.7245666,8.87478327 11.7245666,9.27400159 C11.7245666,9.67336683 11.6124132,10.0180728 11.3698172,10.2903406 C11.12707,10.5626084 10.7724718,10.7621441 10.3057201,10.8711687 C10.0442303,10.9437539 9.63355534,10.9981193 9.09213547,10.9981193 L6.90771338,11.016339 L5.50760947,11.016339 L5.50760947,7.45907902 Z M11.5938217,11.5789474 C12.2472439,11.3066796 12.7513296,10.9437539 13.068745,10.508096 C13.3861603,10.0543654 13.5542393,9.58256193 13.5542393,9.09253872 C13.5542393,8.54815011 13.3675688,8.02183432 12.9940768,7.5318111 C12.6393274,7.04178789 12.1352416,6.67871521 11.4818195,6.44274002 C11.1083274,6.29756972 10.6603184,6.20676482 10.1562326,6.15239942 L16,0 L12.9940768,0 L8.66271787,5.1179876 C8.40137925,5.42640101 8.27063436,5.77125393 8.15863209,6.07981428 L7.95321903,6.07981428 C7.7852912,5.71688854 7.67328893,5.39010844 7.48646734,5.17235299 L3.17385102,0 L0,0 L5.731614,6.07981428 L3.64060271,6.07981428 L3.64060271,17.8039319 L6.90771338,17.8039319 L6.90771338,20 L9.09213547,20 L9.09213547,17.8039319 C9.95097067,17.8039319 10.6603184,17.7313468 11.2578149,17.6042493 C11.873903,17.4772988 12.3779888,17.2958359 12.7886637,17.041641 C13.1993387,16.7695201 13.5354967,16.4064474 13.8154268,15.934644 C14.0956592,15.4628405 14.2448444,14.9545975 14.2448444,14.4102089 C14.2448444,13.7205031 14.0022484,13.139675 13.5542393,12.6315789 C13.1060791,12.1415557 12.4526569,11.7784831 11.5938217,11.5789474 Z" id="Fill-1" fill="#F3761D" mask="url(#mask-2)"></path>
            </g>
        </g>
    </g>
</svg>