<?xml version="1.0" encoding="UTF-8"?>
<svg width="6px" height="10px" viewBox="0 0 6 10" version="1.1" xmlns="http://www.w3.org/2000/svg" xmlns:xlink="http://www.w3.org/1999/xlink">
    <!-- Generator: Sketch 49.2 (51160) - http://www.bohemiancoding.com/sketch -->
    <title>Page 1 Copy 5</title>
    <desc>Created with Sketch.</desc>
    <defs></defs>
    <g id="Page-1" stroke="none" stroke-width="1" fill="none" fill-rule="evenodd">
        <g id="比特元转账" transform="translate(-35.000000, -81.000000)" fill="#4A7DB4">
            <path d="M37.7310453,83.0886027 C37.6887943,83.1137037 37.6433883,83.1320652 37.6060211,83.1705153 C37.5994714,83.1789429 37.5946885,83.1855785 37.5881262,83.192279 C37.5799991,83.2022649 37.5670385,83.2056671 37.5589493,83.2140428 L33.1753898,87.8933843 C33.0584675,88.0170583 33,88.1774942 33,88.3379432 C33,88.5050797 33.0649667,88.6738394 33.1916189,88.7991755 C33.4401151,89.0448873 33.8348243,89.0381479 34.073515,88.7824891 L38.0267144,84.5610297 L41.9229228,88.7991755 C42.1600865,89.0565613 42.5547073,89.0682742 42.8048315,88.8242895 C43.0549683,88.5802528 43.0663514,88.174144 42.8292382,87.9168231 L38.4879298,83.1940061 C38.2979389,82.9867963 38.0055762,82.9483462 37.7684504,83.0653716 C37.7554899,83.0702802 37.7440563,83.082058 37.7310958,83.0886936 L37.7310453,83.0886027 Z" id="Page-1-Copy-5" transform="translate(38.000000, 86.000000) rotate(-90.000000) translate(-38.000000, -86.000000) "></path>
        </g>
    </g>
</svg>