<?xml version="1.0" encoding="UTF-8"?>
<svg width="20px" height="20px" viewBox="0 0 20 20" version="1.1" xmlns="http://www.w3.org/2000/svg" xmlns:xlink="http://www.w3.org/1999/xlink">
    <!-- Generator: Sketch 49.2 (51160) - http://www.bohemiancoding.com/sketch -->
    <title>Page 1 Copy 3</title>
    <desc>Created with Sketch.</desc>
    <defs>
        <polygon id="path-1" points="0 0 20 0 20 20 0 20"></polygon>
    </defs>
    <g id="Page-1" stroke="none" stroke-width="1" fill="none" fill-rule="evenodd">
        <g id="BTY钱包界面规范" transform="translate(-676.000000, -6886.000000)">
            <g id="Page-1-Copy-3" transform="translate(676.000000, 6886.000000)">
                <mask id="mask-2" fill="white">
                    <use xlink:href="#path-1"></use>
                </mask>
                <g id="Clip-2"></g>
                <path d="M9.9564589,12.2415199 C10.676902,12.2415199 11.2608278,11.6573839 11.2608278,10.9371772 L11.2608278,4.85011335 C11.2608278,4.12969655 10.676902,3.54574441 9.9564589,3.54574441 C9.23604211,3.54574441 8.65208996,4.12988032 8.65208996,4.85011335 L8.65208996,10.9371772 C8.65208996,11.6576202 9.23604211,12.2415199 9.9564589,12.2415199 M10.0000394,13.4254124 C9.1636355,13.4254124 8.48556528,14.1032464 8.48556528,14.9398603 C8.48556528,15.7762116 9.1636355,16.4542818 10.0000394,16.4542818 C10.8363645,16.4542818 11.5144347,15.7762116 11.5144347,14.9398603 C11.5144347,14.1032464 10.8363645,13.4254124 10.0000394,13.4254124 M10.0000394,0 C15.5229723,0 20,4.47713272 20,10.0000394 C20,15.5229723 15.5229723,20 10.0000394,20 C4.47710647,20 0,15.5229723 0,10.0000394 C0,4.47713272 4.47710647,0 10.0000394,0" id="Fill-1" fill="#F06666" mask="url(#mask-2)"></path>
            </g>
        </g>
    </g>
</svg>